<svg xmlns="http://www.w3.org/2000/svg" width="19.454" height="20" viewBox="0 0 19.454 20">
  <path id="ic_settings_24px" d="M19.43,12.98A7.793,7.793,0,0,0,19.5,12a7.793,7.793,0,0,0-.07-.98l2.11-1.65a.5.5,0,0,0,.12-.64l-2-3.46a.5.5,0,0,0-.61-.22l-2.49,1a7.306,7.306,0,0,0-1.69-.98l-.38-2.65A.488.488,0,0,0,14,2H10a.488.488,0,0,0-.49.42L9.13,5.07a7.683,7.683,0,0,0-1.69.98l-2.49-1a.488.488,0,0,0-.61.22l-2,3.46a.493.493,0,0,0,.12.64l2.11,1.65A7.931,7.931,0,0,0,4.5,12a7.931,7.931,0,0,0,.07.98L2.46,14.63a.5.5,0,0,0-.12.64l2,3.46a.5.5,0,0,0,.61.22l2.49-1a7.306,7.306,0,0,0,1.69.98l.38,2.65A.488.488,0,0,0,10,22h4a.488.488,0,0,0,.49-.42l.38-2.65a7.683,7.683,0,0,0,1.69-.98l2.49,1a.488.488,0,0,0,.61-.22l2-3.46a.5.5,0,0,0-.12-.64ZM12,15.5A3.5,3.5,0,1,1,15.5,12,3.5,3.5,0,0,1,12,15.5Z" transform="translate(-2.271 -2)"/>
</svg>
